<svg xmlns:xlink="http://www.w3.org/1999/xlink" xmlns="http://www.w3.org/2000/svg" width="288" height="378" viewBox="0 0 288 378" fill="none"><g clip-path="url(#clip0_1_405)"><path d="M0 96C0 50.7452 0 28.1177 14.0589 14.0589C28.1177 0 50.7452 0 96 0H288V378H96C50.7452 378 28.1177 378 14.0589 363.941C0 349.882 0 327.255 0 282V96Z" fill="#6DA975"/><g clip-path="url(#clip1_1_405)"><path d="M11.9554 187.19C4.64945 183.538 -3.19759 180.561 -11.581 179.815C-18.1796 179.233 -23.167 181.81 -28.1126 185.516C-30.8792 187.594 -33.627 189.651 -36.3936 191.729C-37.0989 192.27 -40.0059 194.613 -41.0063 193.478C-41.5917 192.814 -40.659 191.269 -40.1243 190.536C-36.7736 185.896 -33.2686 181.68 -29.6074 177.907C-28.5017 176.765 -27.1417 175.613 -25.5253 174.471C-19.4142 170.154 -13.1622 170.871 -6.61048 173.494C0.786723 176.445 8.22595 179.391 15.6399 182.301C23.6532 185.432 31.5484 188.269 40.3721 188.39C51.5604 188.532 62.6027 183.218 70.6156 176.325C74.7879 172.744 77.9999 169.329 82.1752 165.019C85.0727 162.023 87.9578 160.431 92.1722 159.304C99.7143 157.303 107.726 154.557 114.512 150.375C118.153 148.122 121.153 145.288 123.51 141.835C126.084 138.05 127.934 134.442 129.082 131.029C131.088 125.023 129.267 119.813 125.78 114.732C122.214 109.526 118.768 105.19 116.586 99.9813C116.238 99.1564 115.175 95.5697 117.22 95.5892C118.22 95.5918 119.136 96.7369 119.621 97.4505C121.448 100.068 123.235 102.709 125.202 105.253C127.494 108.221 129.765 111.192 132.038 114.181C134.635 117.595 137.065 121.22 138.049 125.238C138.752 128.078 137.93 129.285 136.133 131.849C134.665 133.934 133.509 136.139 132.624 138.485C131.971 140.249 131.249 143.095 130.516 144.906C127.955 151.263 122.918 156.054 116.396 159.362C112.691 161.238 108.61 162.408 104.232 163.784C97.6566 165.869 90.1524 169.152 84.9895 173.574C79.2809 178.441 73.8832 183.235 66.9784 186.739C61.0207 189.772 54.4708 191.892 47.3099 193.12C37.9763 194.708 29.7591 195.249 21.3708 191.623C18.4596 190.337 15.3149 188.867 11.9554 187.19Z" fill="white" fill-opacity="0.1"/><path d="M356.471 -11.3035C355.217 -11.6617 353.91 -11.745 352.525 -11.57C349.001 -11.1157 345.486 -10.5856 341.976 -9.99863C334.979 -8.82703 328.259 -5.57417 326.194 1.03395C324.672 5.85256 325.638 10.0839 328.22 14.3062C330.405 17.8434 331.897 20.8826 331.275 25.0045C330.922 27.3488 330.268 29.6692 329.391 31.8995C328.567 34.0279 327.593 36.1539 326.434 38.1471C324.083 42.2141 320.964 45.8874 318.114 49.6841C316.208 52.2223 314.96 55.3201 314.297 58.3137C313.436 62.1938 313.565 66.3657 313.671 70.521C313.774 74.6573 312.858 78.6204 310.948 82.4457C308.617 87.0674 305.754 91.8833 303.132 96C300.438 100.24 296.606 103.437 291.639 105.628C288.171 107.151 284.156 109.101 279.553 111.501C275.372 113.681 271.032 115.59 266.124 115.087C260.097 114.478 254.346 111.592 249.25 108.671C243.837 105.574 238.564 102.211 232.511 100.242C226.326 98.2305 220.674 100.192 215.37 103.362C212.976 104.784 210.559 106.189 208.138 107.556C205.696 108.925 203.231 110.278 200.74 111.595C198.37 112.842 195.95 114.036 193.584 115.32C191.297 116.557 189.063 117.884 187.025 119.438C185.379 120.699 183.856 122.099 182.587 123.682C181.429 125.118 180.501 126.702 179.814 128.354C179.044 130.207 178.601 132.139 178.376 134.104C178.303 134.784 178.254 135.481 178.226 136.175C177.917 144.775 179.77 152.92 183.779 160.554C185.192 163.275 187.274 166.843 189.001 169.703C192.398 175.312 195.296 181.015 197.696 186.833C199.857 192.044 201.994 197.603 204.495 202.813C206.988 207.948 211.798 213.245 211.651 219.119C211.599 220.93 211.236 223.755 213.474 224.732C216.791 226.222 219.97 221.562 220.617 219.377C221.311 217.033 220.65 214.937 219.278 212.96C213.496 204.508 208.551 195.924 204.892 186.484C201.681 178.185 197.628 170.729 192.939 163.095C186.767 153.074 180.721 139.812 188.809 128.858C190.285 126.849 191.826 124.851 193.671 123.088C195.475 121.348 197.568 119.903 199.733 118.526C201.776 117.202 203.915 115.981 206.085 114.835C208.275 113.686 210.518 112.627 212.788 111.622C215.161 110.587 217.564 109.625 219.974 108.72C220.301 108.607 220.627 108.474 220.954 108.36C228.43 105.579 233.999 108.544 240.075 112.046C244.695 114.714 248.606 116.751 253.645 118.604C262.794 121.991 272.79 122.133 282.516 120.059C285.384 119.448 288.247 118.607 290.717 117.292C294.469 115.276 297.789 112.06 300.451 109.245C304.582 104.92 308.482 100.429 312.15 95.7723C314.721 92.5255 316.719 89.4777 318.167 86.6455C320.31 82.4291 320.606 78.6318 320.394 74.1043C320.134 68.3917 322.02 62.6487 323.528 56.9483C324.033 55.0094 324.489 53.5755 324.87 52.6108C325.916 49.9965 327.438 47.636 329.385 45.4581C330.935 43.7281 332.603 42.1001 334.017 40.2894C336.991 36.4596 338.959 31.8213 339.438 27.1968C339.873 23.1151 339.069 18.9999 337.085 15.3632C334.513 10.6598 330.59 5.10973 335.384 0.0572644C339.628 -4.39563 346.79 -5.04808 352.735 -5.73639C354.374 -5.92087 356.435 -6.32569 357.659 -7.36599C359.201 -8.78783 358.405 -10.7531 356.471 -11.3035Z" fill="white" fill-opacity="0.1"/><path d="M253.572 14.7383C248.783 12.6464 243.695 11.4908 238.213 12.703C236.532 13.0842 234.872 13.4631 233.213 13.842C228.836 14.853 225.865 11.5195 230.495 8.98199C235.125 6.44445 240.733 5.40998 245.86 6.90696C252.942 8.95198 259.924 13.5049 267.533 13.4167C273.294 13.3636 277.888 9.75463 281.551 5.61686C283.024 3.95321 285.432 1.14727 288.759 -2.76067C293.663 -8.53608 300.151 -13.664 306.172 -18.7778C311.73 -23.4745 315.862 -28.3565 318.602 -34.8293C319.326 -36.5239 320.051 -38.2186 320.777 -39.8943C323.733 -46.7179 329.372 -52.019 336.605 -55.2528C337.315 -55.5631 338.898 -56.2407 341.335 -57.283C344.645 -58.6926 347.076 -61.4819 350.412 -62.6639C353.665 -63.8175 356.46 -63.191 358.478 -60.576C361.713 -56.4081 366.007 -53.9916 370.615 -51.2455C372.349 -50.2116 375.396 -48.2885 374.966 -46.0509C374.614 -44.2638 372.624 -44.1742 370.952 -44.6582C368.136 -45.4743 365.781 -47.3024 362.686 -49.2777C359.315 -51.4332 355.515 -52.8682 351.305 -53.0281C342.092 -53.3931 334.599 -49.6307 329.558 -42.6109C326.967 -38.9778 325.453 -35.4083 323.774 -31.609C321.178 -25.7477 317.455 -20.8159 312.605 -16.8325C309.352 -14.1619 306.1 -11.4723 302.852 -8.76372C297.714 -4.49831 293.249 0.267418 289.458 5.53347C286.935 9.02442 284.106 13.7597 282.268 16.5208C277.534 23.6213 271.462 23.9398 264.143 19.9818C260.377 17.9091 256.862 16.1732 253.572 14.7383Z" fill="white" fill-opacity="0.1"/><path d="M304.777 -39.5145C304.142 -39.4815 303.579 -39.3797 303.062 -39.2447C299.266 -38.1837 296.688 -37.4519 293.307 -37.0522C287.533 -36.3638 282.209 -37.1473 278.671 -31.9097C276.664 -28.9377 275.188 -26.928 272.894 -24.8071C265.449 -17.9775 256.499 -13.3598 246.438 -10.4799C235.531 -7.37031 223.685 -4.84641 212.336 -1.87913C204.172 0.268782 195.057 4.17529 197.292 13.6408C198.306 17.9243 201.302 22.7914 204.033 26.0751C208.465 31.4143 215.476 32.2575 222.417 31.7259C233.007 30.8989 243.794 28.8014 254.075 32.791C258.592 34.5485 262.874 36.8512 266.641 39.6919C268.897 41.3968 271.13 43.277 272.486 45.6785C273.846 48.118 273.793 50.678 273.413 53.3517C272.638 58.5664 270.394 63.9655 266.208 67.7974C265.803 68.1695 265.374 68.5249 264.944 68.8614C263.531 69.923 262.142 71.0012 260.731 72.0817C258.714 73.6338 256.695 76.3 259.712 78.1497C262.592 79.9187 268.009 77.5615 270.309 75.6894C275.557 71.4501 277.396 64.5409 278.836 58.2337C280.129 52.519 281.837 46.1431 278.453 40.8397C275.426 36.0721 269.548 32.4321 264.356 29.7902C260.746 27.9689 256.937 26.458 252.998 25.3074C243.426 22.5056 233.854 24.62 224.171 25.9402C215.618 27.0949 204.633 25.3547 204.043 15.7616C203.585 8.47728 210.983 5.95465 217.246 4.11678C229.793 0.457649 242.228 -3.07351 254.406 -7.74726C265.625 -12.0633 275.404 -17.6384 285.229 -24.3134C286.356 -25.074 288.905 -26.8203 292.877 -29.5334C296.196 -31.8081 299.81 -33.348 303.758 -34.1956C304.838 -34.4324 305.764 -34.9015 306.556 -35.6243C308.209 -37.193 307.461 -39.6821 304.777 -39.5145Z" fill="white" fill-opacity="0.1"/><path d="M264.41 4.01264C262.942 3.64013 262.375 2.57094 262.926 1.22233C263.794 -0.891838 265.769 -2.63122 267.721 -4.00318C271.922 -6.95327 276.274 -9.68997 280.827 -12.1611C281.789 -12.6919 283.98 -13.457 283.991 -11.8451C284.006 -10.5793 282.887 -9.35885 282.065 -8.53653C279.083 -5.53162 276.056 -2.55992 273.005 0.395187C271.179 2.13697 266.996 4.68173 264.41 4.01264Z" fill="white" fill-opacity="0.1"/><path d="M330.858 -238.867C329.605 -239.225 328.297 -239.308 326.913 -239.133C323.389 -238.679 319.873 -238.149 316.364 -237.562C309.367 -236.39 302.647 -233.137 300.581 -226.529C299.06 -221.711 300.025 -217.479 302.607 -213.257C304.793 -209.72 306.284 -206.681 305.663 -202.559C305.31 -200.214 304.656 -197.894 303.779 -195.664C302.954 -193.535 301.981 -191.409 300.822 -189.416C298.47 -185.349 295.351 -181.676 292.501 -177.879C290.595 -175.341 289.348 -172.243 288.685 -169.249C287.823 -165.369 287.952 -161.197 288.058 -157.042C288.162 -152.906 287.246 -148.943 285.336 -145.117C283.004 -140.496 280.142 -135.68 277.519 -131.563C274.826 -127.323 270.993 -124.127 266.026 -121.935C262.559 -120.412 258.543 -118.462 253.94 -116.062C249.759 -113.882 245.42 -111.973 240.511 -112.477C234.484 -113.085 228.733 -115.971 223.637 -118.893C218.224 -121.99 212.951 -125.352 206.899 -127.321C200.714 -129.333 195.061 -127.371 189.757 -124.201C187.364 -122.78 184.947 -121.374 182.526 -120.007C180.084 -118.638 177.619 -117.285 175.128 -115.968C172.757 -114.721 170.338 -113.527 167.971 -112.243C165.685 -111.006 163.451 -109.68 161.412 -108.125C159.767 -106.865 158.243 -105.464 156.974 -103.881C155.816 -102.445 154.888 -100.862 154.202 -99.2095C153.431 -97.3561 152.989 -95.4243 152.763 -93.4594C152.691 -92.7791 152.642 -92.0822 152.613 -91.3877C152.304 -82.788 154.158 -74.6429 158.166 -67.0093C159.579 -64.2877 161.662 -60.7198 163.388 -57.8607C166.786 -52.2515 169.684 -46.5476 172.083 -40.7301C174.245 -35.5195 176.381 -29.9604 178.883 -24.7497C181.376 -19.6148 186.186 -14.3182 186.038 -8.44443C185.987 -6.63347 185.624 -3.80805 187.862 -2.8309C191.179 -1.34148 194.357 -6.00085 195.005 -8.18619C195.699 -10.5303 195.037 -12.6259 193.666 -14.6032C187.884 -23.055 182.938 -31.6394 179.279 -41.0792C176.068 -49.3787 172.016 -56.8345 167.326 -64.4683C161.155 -74.4895 155.108 -87.7509 163.196 -98.7048C164.672 -100.715 166.214 -102.712 168.058 -104.475C169.863 -106.215 171.956 -107.66 174.121 -109.037C176.163 -110.361 178.303 -111.582 180.472 -112.728C182.662 -113.878 184.905 -114.937 187.176 -115.941C189.549 -116.976 191.952 -117.938 194.361 -118.843C194.689 -118.957 195.014 -119.089 195.342 -119.203C202.818 -121.984 208.386 -119.02 214.462 -115.517C219.083 -112.849 222.993 -110.812 228.033 -108.96C237.181 -105.572 247.178 -105.43 256.904 -107.504C259.772 -108.115 262.635 -108.956 265.104 -110.271C268.857 -112.287 272.177 -115.503 274.839 -118.318C278.97 -122.643 282.87 -127.134 286.538 -131.791C289.109 -135.038 291.107 -138.085 292.554 -140.918C294.697 -145.134 294.993 -148.931 294.782 -153.459C294.522 -159.172 296.408 -164.915 297.916 -170.615C298.421 -172.554 298.877 -173.988 299.258 -174.952C300.304 -177.567 301.826 -179.927 303.773 -182.105C305.323 -183.835 306.991 -185.463 308.405 -187.274C311.378 -191.104 313.346 -195.742 313.826 -200.366C314.26 -204.448 313.457 -208.563 311.473 -212.2C308.9 -216.903 304.977 -222.453 309.771 -227.506C314.015 -231.959 321.177 -232.611 327.122 -233.3C328.761 -233.484 330.823 -233.889 332.046 -234.929C333.589 -236.351 332.793 -238.316 330.858 -238.867Z" fill="white" fill-opacity="0.1"/><path d="M514.77 18.9087C514.45 18.3302 514.072 17.8157 513.655 17.325C512.649 16.1324 511.348 15.165 509.955 14.3231C508.129 13.2228 506.062 12.4377 503.921 11.9489C501.759 11.4624 499.548 11.2888 497.328 11.2314C494.983 11.1882 492.652 11.2777 490.325 11.4051C490.092 11.4121 489.882 11.4358 489.649 11.4428C482.856 11.7848 476.103 11.7192 469.343 11.2126C461.96 10.6609 455.287 9.60676 450.221 4.30058C446.793 0.692003 444.791 -3.48036 442.526 -7.71917C441.337 -9.96659 439.963 -12.1548 438.511 -14.2766C437.057 -16.4175 435.526 -18.4919 433.895 -20.4977C432.316 -22.4323 430.696 -24.3432 429.037 -26.2305C427.379 -28.0988 425.661 -29.941 423.905 -31.7405C415.914 -39.963 406.883 -48.3564 395.865 -53.4152C392.634 -54.8951 390.154 -56.133 388.427 -57.1101C383.95 -59.6404 380.083 -62.9883 376.805 -67.1515C375.24 -69.1454 373.677 -71.1203 372.133 -73.1166C367.579 -78.9796 361.476 -81.0197 353.427 -80.3058C348.581 -79.8756 343.837 -78.9192 339.215 -77.4388C334.676 -75.9869 330.825 -73.9019 327.681 -71.2052C325.721 -69.5251 323.085 -66.8472 321.058 -65.1979C313.076 -58.596 303.477 -54.8271 292.731 -54.0594C287.328 -53.6625 281.927 -53.2467 276.529 -52.8118C268.282 -52.1526 259.316 -50.8937 251.646 -47.5724C248.115 -46.042 245.057 -43.7198 241.212 -42.9029C236.701 -41.9535 231.129 -43.0548 226.99 -44.6629C223.139 -46.169 219.268 -48.4219 214.791 -47.9181C212.585 -47.6697 210.813 -46.3949 211.38 -44.1927C211.96 -41.8767 215.339 -40.0293 217.725 -39.4338C219.542 -38.9853 221.888 -38.9421 223.992 -38.7756C227.213 -38.5235 231.063 -37.5934 233.476 -37.1353C239.654 -35.9486 245.947 -36.945 251.879 -39.0721C260.695 -42.2344 268.153 -45.1671 276.93 -46.4046C280.366 -46.8873 285.593 -47.3411 292.589 -47.7637C298.148 -48.1013 302.952 -48.5267 307.808 -50.3792C310.156 -51.258 313.579 -53.1796 316.459 -54.0606C318.188 -54.5817 319.894 -55.1193 321.623 -55.6404C326.393 -57.1183 330.597 -59.6654 334.076 -62.976C339.077 -67.7061 343.286 -71.7133 350.555 -72.5506C356.584 -73.2484 362.182 -71.3436 366.231 -67.3248C367.166 -66.393 368.547 -64.8969 370.352 -62.8532C374.157 -58.5382 379.048 -54.787 384.404 -51.0689C389.044 -47.8464 393.724 -44.6476 398.439 -41.5104C404.169 -37.6809 407.782 -35.2645 409.259 -34.2402C411.223 -32.8672 413.151 -31.4327 415.001 -29.9318C416.92 -28.3811 418.781 -26.7853 420.564 -25.1232C422.37 -23.4445 424.122 -21.6829 425.792 -19.8929C427.462 -18.1028 429.033 -16.244 430.526 -14.3189C431.994 -12.4294 433.362 -10.4901 434.61 -8.47967C435.961 -6.30806 437.234 -4.07011 438.446 -1.80609C443.25 7.21678 447.387 16.3722 459.678 18.1768C464.244 18.8535 468.843 19.0656 473.475 18.8131C480.774 18.4333 487.948 17.1266 495.238 16.8629C497.844 16.7616 500.565 17.1084 502.983 17.9884C503.471 18.1639 503.964 18.3774 504.416 18.6145C505.074 18.9821 505.697 19.4113 506.261 19.8855C507.981 21.3627 509.073 23.3138 509.295 25.478C509.496 27.4526 508.979 29.4696 507.83 31.1737C507.373 31.8396 506.827 32.4771 506.187 33.0293C503.902 35.0341 500.329 36.1852 497.135 36.7367C492.039 37.5982 486.899 37.8696 481.734 37.5483C478.326 37.3365 474.898 37.127 471.493 36.9342C468.644 36.7747 465.792 36.7692 462.957 36.9155C460.143 37.0594 457.346 37.355 454.539 37.7477C451.733 38.1595 448.943 38.704 446.161 39.3244C443.359 39.9471 440.569 40.6836 437.793 41.3608C437.323 41.529 436.779 41.6094 436.302 41.7207C435.825 41.832 435.35 41.9623 434.873 42.0736C433.774 42.3317 432.677 42.6087 431.579 42.8668C428.366 43.6317 424.084 44.1521 421.275 42.8358C418.244 41.4294 417.352 38.2268 417.845 35.2332C418.279 32.4765 419.28 30.405 420.714 27.8241C423.384 23.7595 426.122 19.7258 428.93 15.7419C429.406 15.0546 430.142 13.8388 431.116 12.0968C436.451 2.58575 427.454 -5.12023 419.877 -10.0478C416.662 -12.144 413.468 -14.2426 410.253 -16.3388C407.311 -18.2738 405.173 -19.8767 403.817 -21.1452C401.39 -23.4261 399.546 -25.0621 398.26 -26.0888C394.191 -29.3372 389.572 -31.621 384.361 -32.9166C380.595 -33.8562 375.355 -34.0921 372.256 -34.7803C369.789 -35.3285 367.741 -35.7509 366.093 -36.0263C357.91 -37.4482 349.541 -36.3717 342.516 -31.8555C338.804 -29.4789 335.648 -26.512 332.18 -23.8557C330.261 -22.3723 328.836 -21.4245 327.931 -20.9577C324.039 -19.0411 320.546 -16.8043 317.492 -14.2521C312.316 -9.94406 307.493 -5.1571 303.037 0.0685005C300.086 3.5309 297.546 6.87014 295.34 10.7096C293.332 14.2386 292.662 17.9244 293.372 21.7812C294.565 28.4067 297.115 34.8026 297.347 41.5938C297.564 48.0603 295.967 54.4813 293.679 60.6153C293.664 60.6745 293.628 60.7361 293.616 60.8144C293.047 62.3763 292.413 63.9264 291.734 65.4622C288.204 73.4258 281.583 79.4521 272.578 82.4436C265.501 84.7957 257.171 86.7895 249.502 87.0957C244.355 87.3102 238.795 87.0717 232.824 86.3994C226.251 85.6606 221.377 84.9033 215.997 85.3167C215.365 85.3687 214.713 85.442 214.085 85.532C213.457 85.6219 212.831 85.7307 212.23 85.8752C201.134 88.2571 193.385 98.4431 181.898 99.2367C174.297 99.7657 167.517 95.4974 161.484 91.433C156.857 88.3243 152.108 85.0757 149.359 80.5073C146.606 75.901 146.17 70.3234 147.155 65.085C148.14 59.8467 150.473 54.86 152.972 50.0274C155.474 45.2138 158.233 39.8527 156.459 34.8673C155.242 31.4323 152.02 28.8952 148.599 27.0526C145.178 25.2099 141.428 23.8461 138.173 21.7735C135.078 19.7982 132.465 17.1925 130.619 14.2125C129.344 12.1476 127.511 9.47333 124.924 10.1293C123.166 10.5768 122.316 12.4777 122.373 14.1228C122.508 17.9676 125.956 20.9978 129.6 22.9305C133.649 25.0672 138.164 26.4219 142.195 28.5799C146.228 30.7569 149.876 34.0526 150.565 38.2768C151.028 41.0669 150.137 43.9325 149.099 46.6226C147.011 52.0811 144.283 57.3426 142.523 62.8794C140.763 68.4162 140.01 74.3965 141.92 79.8275C144.61 87.4751 152.2 90.9993 158.686 95.6848C165.704 100.752 171.232 107.139 181.2 106.459C186.671 106.093 191.886 104.027 196.748 101.656C202.256 98.981 207.613 96.0928 213.355 93.7949C213.416 93.7689 213.498 93.7405 213.559 93.7144C213.62 93.6883 213.7 93.6409 213.763 93.6339C219.566 91.3099 224.726 91.4013 230.815 92.1756C237.42 93.0068 243.878 93.8547 250.603 93.4818C258.85 93.0145 267.018 91.6536 274.959 89.4155C291.44 84.776 300.474 70.7006 303.608 56.1946C305.033 49.5626 306.186 42.9803 305.554 36.2341C305.124 31.6544 303.704 27.1669 302.874 22.6321C301.86 17.0236 303.112 12.0816 306.73 7.3536C310.016 3.08535 313.744 -0.848545 317.917 -4.42916C326.009 -11.37 334.766 -17.5214 344.185 -22.8832C353.846 -28.3683 363.801 -30.6793 374.672 -27.87C381.861 -26.0099 388.374 -23.1709 394.115 -18.8625C396.438 -17.1268 399.051 -14.7131 401.459 -12.6029C404.456 -9.98285 407.199 -7.92942 409.669 -6.40227C417.622 -1.53628 425.948 2.4812 419.871 12.9592C416.826 18.2373 413.471 23.0317 411.409 28.9098C409.631 33.9108 409.469 38.9028 410.833 43.8383C412.043 48.1574 415.087 53.4607 420.272 54.7207C423.817 55.5891 428.895 53.9999 432.565 52.7611C435.27 51.842 437.98 50.9609 440.683 50.0229C443.326 49.111 445.937 48.1066 448.55 47.1211C451.165 46.1547 453.782 45.2072 456.461 44.4256C457.471 44.139 458.482 43.8525 459.499 43.6228C460.473 43.3978 461.465 43.1326 462.453 43.0214C464.646 42.6593 467.219 42.6386 470.126 42.9451C475.941 43.5581 481.615 44.4366 487.529 44.0398C492.684 43.7092 497.994 42.862 502.821 41.128C509.917 38.5627 514.032 32.204 515.562 25.7522C516.106 23.4056 515.923 21.0257 514.77 18.9087Z" fill="white" fill-opacity="0.1"/><path d="M421.961 98.1039C420.327 93.7942 416.42 91.6029 413.365 88.2789C407.233 81.6332 400.394 75.7008 393.678 69.5433C387.651 64.0188 382.434 58.4992 382.644 50.1603C382.826 43.6489 385.241 37.3087 386.478 30.909C387.201 27.1213 387.453 23.3097 386.984 19.5218C386.292 13.9346 383.159 9.92788 377.585 7.48263C371.408 4.77886 362.164 2.43936 355.326 4.45723C351.927 5.45432 350.062 7.6038 349.713 10.927C349.278 15.0087 350.421 19.297 350.203 23.4119C349.934 28.3968 348.17 33.3386 346.447 38.0647C345.974 39.347 345.482 40.6505 344.986 41.9162C344.739 42.5585 344.448 43.1866 344.201 43.8289C344.021 44.3101 343.901 45.1302 343.563 45.5331C341.694 50.2947 340.336 55.8055 339.34 61.141C338.276 66.8107 337.232 72.478 336.212 78.1619C334.697 86.6286 332.2 94.1302 324.252 99.5185C322.887 100.44 321.525 101.381 320.16 102.303C316.289 104.966 313.453 108.319 311.657 112.401C309.86 116.482 308.728 120.796 307.437 125.013C305.547 131.102 302.749 137.062 295.729 139.542C289.568 141.715 283.213 141.969 276.679 140.265C273.698 139.487 270.766 138.588 267.902 137.528C261.153 135.042 254.425 132.554 247.695 130.047C243.631 128.545 239.729 126.776 235.968 124.741C233.702 123.518 232.251 122.164 230.645 120.367C228.844 118.361 226.715 117.218 223.806 117.084C216.062 116.727 212.731 121.922 211.849 128.07C211.026 133.809 210.555 138.701 206.978 143.598C206.389 144.413 205.327 145.569 203.819 147.103C202.633 148.292 201.471 149.498 200.332 150.721C199.346 151.792 198.297 152.871 197.677 154.17C197.145 155.305 196.979 156.668 197.571 157.772C198.088 158.771 199.623 159.174 200.749 158.97C202.107 158.741 203.286 157.686 204.115 156.729C204.776 155.982 205.321 155.153 205.821 154.309C207.366 151.773 208.913 149.256 210.525 146.751C212.477 143.67 214.271 139.954 215.887 135.585C216.23 134.663 216.843 133.5 217.753 132.13C220.349 128.151 224.843 127.242 229.442 128.587C234.217 129.989 238.441 131.587 242.046 133.371C252.499 138.512 263.533 144.472 275.475 146.393C278.791 146.922 282.355 146.636 285.752 147.137C288.262 147.507 291.23 148.345 293.245 148.483C299.035 148.868 303.252 144.937 306.16 140.711C310.714 134.092 313.388 126.647 316.425 119.411C319.697 111.611 324.36 104.826 332.827 100.839C336.001 99.3484 340.097 98.3112 342.571 95.7091C345.995 92.0975 345.227 87.7287 344.139 83.5494C342.286 76.3454 342.479 69.1797 344.697 62.0359C345.684 58.8907 347.745 55.0868 348.741 52.4014C350.356 48.0331 351.181 43.4467 352.973 39.1354C353.908 36.86 355.134 34.7057 355.916 32.39C356.679 30.0956 356.957 27.6447 356.795 25.2625C356.585 21.887 356.037 18.5304 356.28 15.2C356.416 13.5716 357.07 11.6352 358.392 10.5262C361.369 8.04039 368.786 10.6046 371.803 12.0703C376.935 14.5652 380.004 19.136 380.759 24.3321C381.137 26.9396 380.927 29.4214 380.475 32.0263C379.352 38.4901 377.128 44.8279 377.402 51.4224C377.538 54.9021 378.412 58.3181 380.08 61.4142C381.723 64.4748 384.294 67.4692 386.825 70.1033C392.441 75.943 398.151 81.676 403.259 87.9185C405.824 91.048 408.37 94.1989 410.875 97.3545C413.727 100.951 415.401 105.045 416.274 109.402C416.779 111.995 417.294 115.817 417.818 120.847C418.021 122.84 418.527 128.66 421.065 129.277C423.035 129.765 423.814 126.663 423.778 125.399C423.715 122.948 423.132 120.421 422.733 118.008C422.043 113.765 422.342 109.046 422.601 104.542C422.811 102.444 422.715 100.074 421.961 98.1039Z" fill="white" fill-opacity="0.1"/><path d="M211.117 57.6556C209.215 57.7736 207.297 57.9319 205.401 58.1069C201.104 58.4946 196.789 58.9225 192.504 59.424C190.991 59.5943 189.46 59.7859 187.955 60.0321C187.35 60.1386 186.367 60.2877 185.974 60.7735C185.546 61.3209 186.401 61.7241 186.922 61.8191C188.745 62.1324 190.624 61.9978 192.483 61.8844C198.988 61.4404 205.49 60.9774 211.995 60.5334C214.718 60.3421 217.463 60.1484 220.03 59.3218C220.502 59.1726 221.042 58.8622 220.993 58.426C220.929 58.0491 220.462 57.8712 220.048 57.7834C218.284 57.425 216.456 57.4388 214.652 57.4881C213.465 57.5258 212.301 57.58 211.117 57.6556Z" fill="white" fill-opacity="0.1"/><path d="M262.599 47.2907C262.279 46.7123 261.902 46.1978 261.485 45.7071C260.457 44.5169 259.177 43.5471 257.784 42.7052C255.958 41.6049 253.891 40.8198 251.75 40.331C249.589 39.8445 247.377 39.6709 245.158 39.6135C242.812 39.5702 240.481 39.6597 238.155 39.7872C237.921 39.7942 237.711 39.8178 237.478 39.8249C230.685 40.1669 223.932 40.1013 217.172 39.5947C209.789 39.0429 203.116 37.9888 198.05 32.6827C194.622 29.0741 192.62 24.9017 190.356 20.6629C189.166 18.4155 187.792 16.2273 186.34 14.1054C184.886 11.9646 183.355 9.89013 181.725 7.88439C180.145 5.94976 178.525 4.03884 176.866 2.15161C175.208 0.283333 173.49 -1.55888 171.734 -3.35843C163.744 -11.5809 154.712 -19.9743 143.694 -25.0331C140.463 -26.513 137.983 -27.7509 136.256 -28.728C131.779 -31.2583 127.912 -34.6062 124.634 -38.7694C123.069 -40.7633 121.506 -42.7382 119.962 -44.7345C115.408 -50.5976 109.305 -52.6376 101.256 -51.9237C96.4103 -51.4935 91.666 -50.5371 87.0445 -49.0567C82.505 -47.6048 78.6538 -45.5198 75.5099 -42.8231C73.5496 -41.143 70.9143 -38.4651 68.8868 -36.8158C60.9049 -30.2139 51.306 -26.445 40.5607 -25.6773C35.1575 -25.2804 29.7565 -24.8646 24.3577 -24.4298C16.1112 -23.7705 7.14489 -22.5116 -0.5253 -19.1903C-4.05585 -17.6599 -7.11423 -15.3377 -10.9592 -14.5208C-15.4702 -13.5714 -21.0419 -14.6727 -25.1811 -16.2808C-29.0321 -17.787 -32.9033 -20.0398 -37.3794 -19.536C-39.5859 -19.2877 -41.3576 -18.0128 -40.7906 -15.8106C-40.2107 -13.4946 -36.832 -11.6472 -34.4454 -11.0517C-32.6286 -10.6032 -30.2829 -10.56 -28.1787 -10.3935C-24.9582 -10.1415 -21.1082 -9.21133 -18.6945 -8.75325C-12.5173 -7.56652 -6.22403 -8.56289 -0.292108 -10.69C8.52384 -13.8523 15.9824 -16.785 24.7596 -18.0225C28.1953 -18.5052 33.4217 -18.959 40.418 -19.3816C45.9768 -19.7192 50.7808 -20.1447 55.6371 -21.9971C57.9854 -22.8759 61.4081 -24.7975 64.2882 -25.6785C66.0171 -26.1996 67.7229 -26.7372 69.4518 -27.2583C74.2225 -28.7362 78.426 -31.2834 81.9052 -34.5939C86.9057 -39.324 91.1151 -43.3312 98.3839 -44.1686C104.413 -44.8663 110.011 -42.9615 114.06 -38.9427C114.995 -38.0109 116.376 -36.5149 118.181 -34.4711C121.986 -30.1561 126.877 -26.405 132.233 -22.6869C136.873 -19.4644 141.553 -16.2656 146.268 -13.1284C151.998 -9.29878 155.611 -6.88247 157.089 -5.85809C159.052 -4.48516 160.98 -3.05059 162.83 -1.54967C164.749 0.00102927 166.61 1.59677 168.393 3.25885C170.199 4.93753 171.951 6.69915 173.621 8.4892C175.291 10.2793 176.862 12.138 178.355 14.0631C179.824 15.9527 181.191 17.892 182.439 19.9024C183.79 22.074 185.063 24.312 186.276 26.576C191.079 35.5989 195.216 44.7543 207.507 46.5588C212.073 47.2355 216.672 47.4477 221.304 47.1952C228.603 46.8153 235.777 45.5087 243.068 45.245C245.674 45.1437 248.394 45.4905 250.813 46.3705C251.301 46.546 251.793 46.7595 252.245 46.9966C252.904 47.3642 253.526 47.7934 254.09 48.2676C255.81 49.7448 256.902 51.6959 257.125 53.8601C257.326 55.8347 256.808 57.8517 255.659 59.5557C255.202 60.2217 254.656 60.8592 254.016 61.4114C251.731 63.4161 248.158 64.5673 244.964 65.1188C239.868 65.9803 234.728 66.2516 229.563 65.9304C226.156 65.7185 222.727 65.5091 219.322 65.3163C216.474 65.1567 213.621 65.1513 210.786 65.2975C207.972 65.4414 205.175 65.737 202.368 66.1298C199.563 66.5416 196.772 67.0861 193.991 67.7064C191.188 68.3292 188.398 69.0656 185.622 69.7429C185.152 69.9111 184.608 69.9915 184.131 70.1028C183.654 70.2141 183.179 70.3444 182.702 70.4556C181.603 70.7137 180.507 70.9908 179.408 71.2489C176.195 72.0138 171.913 72.5342 169.105 71.2179C166.073 69.8115 165.181 66.6089 165.674 63.6152C166.109 60.8586 167.11 58.7871 168.543 56.2061C171.214 52.1416 173.952 48.1079 176.759 44.124C177.235 43.4367 177.971 42.2208 178.945 40.4789C184.28 30.9678 175.284 23.2619 167.706 18.3343C164.491 16.2381 161.297 14.1395 158.082 12.0433C155.14 10.1083 153.002 8.50542 151.646 7.23693C149.219 4.95601 147.375 3.31999 146.089 2.2933C142.021 -0.955135 137.401 -3.23895 132.19 -4.53447C128.424 -5.47408 123.184 -5.71006 120.085 -6.39824C117.619 -6.94641 115.571 -7.36884 113.922 -7.64421C105.74 -9.0661 97.3698 -7.98965 90.3449 -3.47344C86.6329 -1.09686 83.4768 1.87007 80.0092 4.52641C78.0907 6.0098 76.6651 6.95759 75.76 7.42434C71.8687 9.34101 68.375 11.5778 65.3213 14.1299C60.1455 18.438 55.3216 23.225 50.8663 28.4506C47.915 31.913 45.3754 35.2522 43.1688 39.0917C41.1613 42.6207 40.4908 46.3065 41.2015 50.1633C42.3941 56.7888 44.9441 63.1847 45.1765 69.9759C45.3935 76.4424 43.7967 82.8634 41.5078 88.9973C41.4932 89.0566 41.4576 89.1182 41.4451 89.1964C40.8761 90.7584 40.2419 92.3084 39.5635 93.8443C36.0335 101.808 29.4126 107.834 20.4072 110.826C13.3301 113.178 4.99979 115.172 -2.66927 115.478C-7.81628 115.692 -13.376 115.454 -19.3464 114.782C-25.9201 114.043 -30.7934 113.285 -36.1734 113.699C-36.8059 113.751 -37.4574 113.824 -38.0857 113.914C-38.714 114.004 -39.3401 114.113 -39.941 114.257C-51.0367 116.639 -58.7855 126.825 -70.2727 127.619C-77.8741 128.148 -84.6535 123.879 -90.6865 119.815C-95.3137 116.706 -100.063 113.458 -102.812 108.889C-105.565 104.283 -106.001 98.7054 -105.016 93.4671C-104.031 88.2288 -101.698 83.2421 -99.1985 78.4095C-96.6971 73.5959 -93.9382 68.2348 -95.7123 63.2494C-96.9289 59.8144 -100.151 57.2773 -103.572 55.4347C-106.993 53.592 -110.742 52.2281 -113.998 50.1556C-117.093 48.1803 -119.706 45.5746 -121.552 42.5946C-122.827 40.5297 -124.66 37.8554 -127.246 38.5114C-129.005 38.9589 -129.855 40.8598 -129.798 42.5048C-129.663 46.3496 -126.215 49.3798 -122.571 51.3126C-118.521 53.4493 -114.006 54.8039 -109.976 56.962C-105.943 59.139 -102.295 62.4347 -101.606 66.6589C-101.143 69.449 -102.034 72.3146 -103.072 75.0047C-105.16 80.4632 -107.887 85.7247 -109.648 91.2615C-111.408 96.7983 -112.161 102.779 -110.251 108.21C-107.56 115.857 -99.971 119.381 -93.4851 124.067C-86.4668 129.134 -80.9385 135.521 -70.9707 134.841C-65.5003 134.475 -60.285 132.409 -55.4233 130.038C-49.9148 127.363 -44.558 124.475 -38.8156 122.177C-38.7546 122.151 -38.6727 122.123 -38.6118 122.096C-38.5509 122.07 -38.4711 122.023 -38.4081 122.016C-32.6047 119.692 -27.4446 119.783 -21.3563 120.558C-14.7509 121.389 -8.29268 122.237 -1.56746 121.864C6.67932 121.397 14.8468 120.036 22.7879 117.798C39.2688 113.158 48.3035 99.0826 51.4377 84.5767C52.8618 77.9447 54.0149 71.3624 53.3833 64.6162C52.953 60.0365 51.5329 55.549 50.7033 51.0142C49.689 45.4056 50.9416 40.4637 54.5591 35.7357C57.8454 31.4674 61.5736 27.5335 65.7459 23.9529C73.8386 17.0121 82.5948 10.8607 92.0144 5.49887C101.675 0.0138323 111.63 -2.29719 122.501 0.512038C129.691 2.3722 136.203 5.21117 141.944 9.51959C144.267 11.2553 146.88 13.669 149.288 15.7792C152.285 18.3992 155.028 20.4527 157.498 21.9798C165.451 26.8458 173.777 30.8633 167.7 41.3412C164.655 46.6193 161.3 51.4138 159.238 57.2918C157.46 62.2929 157.298 67.2849 158.662 72.2204C159.872 76.5395 162.916 81.8428 168.101 83.1028C171.647 83.9712 176.724 82.3819 180.394 81.1431C183.099 80.2241 185.809 79.343 188.513 78.405C191.155 77.4931 193.766 76.4887 196.379 75.5032C198.994 74.5368 201.611 73.5893 204.29 72.8077C205.3 72.5211 206.311 72.2346 207.328 72.0049C208.303 71.7799 209.294 71.5147 210.282 71.4035C212.476 71.0414 215.048 71.0207 217.955 71.3272C223.77 71.9402 229.445 72.8186 235.358 72.4219C240.514 72.0913 245.823 71.244 250.651 69.5101C257.746 66.9448 261.861 60.586 263.391 54.1342C263.935 51.7877 263.752 49.4078 262.599 47.2907Z" fill="white" fill-opacity="0.1"/><path d="M264.126 158.808C256.82 155.156 248.973 152.179 240.59 151.433C233.991 150.85 229.004 153.428 224.058 157.134C221.292 159.212 218.544 161.269 215.777 163.347C215.072 163.888 212.165 166.231 211.165 165.096C210.579 164.432 211.512 162.886 212.047 162.154C215.397 157.514 218.902 153.298 222.563 149.525C223.669 148.383 225.029 147.231 226.646 146.089C232.757 141.772 239.009 142.489 245.56 145.112C252.958 148.063 260.397 151.009 267.811 153.919C275.824 157.05 283.719 159.887 292.543 160.008C303.731 160.15 314.773 154.836 322.786 147.943C326.959 144.362 330.171 140.947 334.346 136.636C337.244 133.641 340.129 132.049 344.343 130.922C351.885 128.92 359.897 126.175 366.683 121.993C370.323 119.74 373.324 116.906 375.681 113.452C378.255 109.668 380.105 106.06 381.253 102.647C383.258 96.6412 381.438 91.4307 377.95 86.3501C374.385 81.1438 370.939 76.8075 368.757 71.5993C368.409 70.7743 367.345 67.1876 369.39 67.2071C370.391 67.2097 371.307 68.3548 371.792 69.0684C373.619 71.6858 375.406 74.3269 377.373 76.8708C379.665 79.8391 381.936 82.8097 384.209 85.7993C386.806 89.2133 389.236 92.8382 390.22 96.8563C390.923 99.6962 390.101 100.903 388.304 103.467C386.836 105.552 385.68 107.757 384.795 110.103C384.142 111.866 383.42 114.713 382.687 116.524C380.126 122.881 375.089 127.672 368.567 130.98C364.862 132.856 360.78 134.026 356.403 135.402C349.827 137.486 342.323 140.77 337.16 145.192C331.452 150.059 326.054 154.853 319.149 158.357C313.192 161.39 306.642 163.51 299.481 164.738C290.147 166.326 281.93 166.867 273.542 163.241C270.63 161.955 267.486 160.485 264.126 158.808Z" fill="white" fill-opacity="0.1"/><path d="M264.223 106.544C262.108 105.706 264.651 103.154 265.743 102.647C271.407 100.032 276.413 97.4326 280.82 94.8049C282.975 93.5254 291.477 90.0336 291.917 94.5161C292.11 96.6068 289.64 98.4788 287.756 99.3246C285.223 100.455 282.519 101.009 279.791 101.546C276.026 102.315 272.544 103.514 269.16 105.22C267.932 105.838 265.582 107.082 264.223 106.544Z" fill="white" fill-opacity="0.1"/><path d="M294.555 130.611C293.43 132.907 282.232 133.246 282.296 131.357C282.288 131.281 282.344 131.217 282.403 131.172C282.795 130.878 283.194 130.641 283.623 130.477C286.295 129.447 289.874 128.353 292.767 128.719C293.825 128.849 295.108 129.473 294.555 130.611Z" fill="white" fill-opacity="0.1"/><path d="M164.907 168.343C158.909 164.966 149.432 160.56 147.023 153.898C145.781 150.428 146.525 145.505 150.102 143.066C150.993 142.467 151.925 142.247 152.905 142.444C157.106 143.277 156.087 149.345 156.646 152.047C158.291 160.043 166.234 163.873 172.839 168.103C179.766 172.547 183.683 178.616 185.605 186.043C186.555 189.758 187.507 193.491 188.436 197.208C188.631 197.993 188.63 198.934 188.435 200.032C188.18 201.366 186.786 202.214 185.781 200.849C185.128 199.962 184.639 199.018 184.311 197.999C183.64 196.001 182.947 194.005 182.254 192.009C180.611 187.239 178.377 182.709 175.616 178.411C172.714 173.994 169.632 170.999 164.907 168.343Z" fill="white" fill-opacity="0.1"/><path d="M1.40154 43.1203C-3.38791 41.0285 -8.47633 39.8728 -13.9579 41.0851C-15.6387 41.4663 -17.2985 41.8452 -18.9583 42.224C-23.3347 43.2351 -26.3061 39.9016 -21.6759 37.3641C-17.0457 34.8265 -11.4377 33.7921 -6.31091 35.289C0.771562 37.3341 7.75325 41.887 15.3617 41.7988C21.1227 41.7457 25.7175 38.1367 29.3801 33.9989C30.8528 32.3353 33.2609 29.5293 36.5877 25.6214C41.4918 19.846 47.9798 14.7181 54.0012 9.60431C59.5587 4.90759 63.691 0.0256175 66.4311 -6.44722C67.1555 -8.14187 67.8798 -9.8365 68.6063 -11.5122C71.5623 -18.3358 77.2008 -23.6369 84.434 -26.8707C85.1439 -27.1811 86.7275 -27.8586 89.1638 -28.901C92.4739 -30.3105 94.9051 -33.0999 98.2408 -34.2819C101.495 -35.4354 104.289 -34.809 106.307 -32.1939C109.543 -28.026 113.837 -25.6095 118.444 -22.8635C120.178 -21.8295 123.225 -19.9064 122.796 -17.6689C122.443 -15.8817 120.453 -15.7921 118.781 -16.2761C115.966 -17.0922 113.611 -18.9203 110.515 -20.8956C107.145 -23.0511 103.344 -24.4862 99.1338 -24.646C89.9209 -25.011 82.428 -21.2487 77.3872 -14.2288C74.7956 -10.5957 73.2821 -7.02626 71.603 -3.22695C69.0068 2.63437 65.2845 7.56619 60.434 11.5496C57.1807 14.2202 53.9296 16.9098 50.6806 19.6184C45.5427 23.8838 41.0782 28.6495 37.2871 33.9156C34.7646 37.4065 31.9352 42.1418 30.0967 44.9029C25.3629 52.0034 19.2913 52.3219 11.9722 48.3639C8.20639 46.2912 4.69126 44.5552 1.40154 43.1203Z" fill="white" fill-opacity="0.1"/><path d="M169.79 126.486C168.156 122.176 164.249 119.985 161.194 116.661C155.062 110.015 148.223 104.083 141.507 97.9254C135.48 92.4009 130.263 86.8814 130.473 78.5424C130.655 72.031 133.07 65.6908 134.308 59.2911C135.03 55.5034 135.282 51.6919 134.813 47.9039C134.121 42.3167 130.988 38.31 125.414 35.8648C119.237 33.161 109.993 30.8215 103.155 32.8394C99.756 33.8365 97.8912 35.9859 97.5417 39.3091C97.1073 43.3908 98.2496 47.6791 98.0318 51.7941C97.7629 56.7789 95.9995 61.7207 94.2757 66.4469C93.8029 67.7291 93.3112 69.0327 92.8153 70.2984C92.5684 70.9407 92.2773 71.5687 92.0304 72.2111C91.8505 72.6922 91.73 73.5123 91.3923 73.9152C89.5235 78.6768 88.1647 84.1877 87.1691 89.5231C86.1048 95.1928 85.0615 100.86 84.0414 106.544C82.5258 115.011 80.0291 122.512 72.0808 127.901C70.7162 128.822 69.3537 129.763 67.9891 130.685C64.1179 133.348 61.282 136.702 59.4856 140.783C57.6893 144.864 56.5575 149.178 55.2658 153.395C53.3762 159.484 50.5783 165.445 43.5583 167.925C37.3974 170.097 31.0418 170.351 24.5085 168.648C21.5268 167.869 18.5953 166.97 15.7308 165.91C8.98178 163.424 2.25375 160.936 -4.47641 158.429C-8.53972 156.927 -12.4416 155.158 -16.2032 153.123C-18.469 151.9 -19.9195 150.546 -21.5262 148.749C-23.3268 146.743 -25.4558 145.6 -28.3649 145.466C-36.1087 145.109 -39.4396 150.304 -40.3223 156.452C-41.1448 162.191 -41.6156 167.083 -45.1929 171.98C-45.7821 172.795 -46.8437 173.951 -48.3523 175.485C-49.5377 176.674 -50.7001 177.881 -51.8393 179.103C-52.8253 180.175 -53.8744 181.253 -54.4943 182.552C-55.0262 183.687 -55.192 185.05 -54.5995 186.155C-54.0828 187.153 -52.5478 187.556 -51.4216 187.352C-50.0642 187.123 -48.8848 186.068 -48.0562 185.111C-47.3954 184.364 -46.8503 183.535 -46.3495 182.691C-44.8048 180.155 -43.2579 177.638 -41.6459 175.133C-39.6944 172.052 -37.8995 168.336 -36.2844 163.968C-35.9413 163.046 -35.3274 161.882 -34.4176 160.512C-31.8224 156.533 -27.3281 155.624 -22.7291 156.969C-17.9534 158.371 -13.7302 159.97 -10.1246 161.753C0.328196 166.895 11.3625 172.854 23.3042 174.775C26.6197 175.304 30.1839 175.018 33.5813 175.519C36.0915 175.89 39.0587 176.727 41.0746 176.865C46.8636 177.251 51.0816 173.319 53.9896 169.093C58.5434 162.474 61.2168 155.029 64.2541 147.793C67.5259 139.993 72.1887 133.208 80.6564 129.221C83.8297 127.731 87.9265 126.693 90.4001 124.091C93.8241 120.48 93.0557 116.111 91.9682 111.932C90.1147 104.728 90.3083 97.5619 92.5261 90.4181C93.5128 87.2728 95.5745 83.4689 96.5703 80.7835C98.1854 76.4153 99.0099 71.8288 100.802 67.5175C101.737 65.2422 102.963 63.0878 103.745 60.7721C104.508 58.4778 104.786 56.0269 104.624 53.6446C104.415 50.2691 103.867 46.9125 104.109 43.5822C104.245 41.9538 104.899 40.0173 106.222 38.9083C109.198 36.4225 116.615 38.9868 119.632 40.4524C124.765 42.9473 127.833 47.5182 128.588 52.7142C128.966 55.3218 128.756 57.8035 128.305 60.4084C127.181 66.8722 124.957 73.21 125.231 79.8045C125.368 83.2843 126.241 86.7002 127.909 89.7963C129.552 92.8569 132.123 95.8514 134.654 98.4855C140.27 104.325 145.98 110.058 151.088 116.301C153.653 119.43 156.2 122.581 158.704 125.737C161.556 129.333 163.23 133.427 164.103 137.784C164.608 140.378 165.123 144.199 165.647 149.229C165.85 151.222 166.356 157.042 168.894 157.659C170.864 158.148 171.643 155.045 171.607 153.781C171.544 151.33 170.962 148.804 170.562 146.39C169.872 142.147 170.171 137.428 170.43 132.924C170.641 130.826 170.544 128.456 169.79 126.486Z" fill="white" fill-opacity="0.1"/><rect x="53.8585" y="33.1587" width="159" height="264.73" transform="rotate(-41.86 53.8585 33.1587)" fill="url(#paint0_linear_1_405)"/></g></g><defs><linearGradient id="paint0_linear_1_405" x1="247.664" y1="108.938" x2="50.4357" y2="149.873" gradientUnits="userSpaceOnUse"><stop stop-color="#6DA975" stop-opacity="0"/><stop offset="1" stop-color="#6DA975"/></linearGradient><clipPath id="clip0_1_405"><path d="M0 96C0 50.7452 0 28.1177 14.0589 14.0589C28.1177 0 50.7452 0 96 0H288V378H96C50.7452 378 28.1177 378 14.0589 363.941C0 349.882 0 327.255 0 282V96Z" fill="white"/></clipPath><clipPath id="clip1_1_405"><rect x="108" y="-71.6179" width="253.763" height="229" rx="63.907" transform="rotate(-6.42167 108 -71.6179)" fill="white"/></clipPath></defs></svg>