<svg xmlns:xlink="http://www.w3.org/1999/xlink" xmlns="http://www.w3.org/2000/svg" width="1423" height="630" viewBox="0 0 1423 630" fill="none"><path d="M0 133.882C0 67.2512 0 33.9358 20.8949 14.8969C41.7897 -4.14212 75.198 -1.03017 142.015 5.19374C292.729 19.2327 533.26 38.6345 711.5 38.6345C889.74 38.6345 1130.27 19.2327 1280.99 5.19374C1347.8 -1.03017 1381.21 -4.14212 1402.11 14.8969C1423 33.9358 1423 67.2512 1423 133.882V502C1423 562.34 1423 592.51 1404.25 611.255C1385.51 630 1355.34 630 1295 630H128C67.6602 630 37.4903 630 18.7452 611.255C0 592.51 0 562.34 0 502V133.882Z" fill="#E4F6E7"/></svg>