<svg xmlns="http://www.w3.org/2000/svg" width="129" height="143" fill="none"><path d="M7.869 8.289v1.272H.57V8.29h7.298Zm-2.97-3.108v7.751H3.548v-7.75H4.9Z" fill="#FFA700"/><path d="M7.868 46.367v1.272H.57v-1.273h7.298ZM4.9 43.259v7.75H3.547v-7.75h1.352ZM45.946 8.289v1.272h-7.298V8.29h7.298Zm-2.97-3.108v7.751h-1.352v-7.75h1.353ZM45.946 46.367v1.272h-7.298v-1.273h7.298Zm-2.97-3.108v7.75h-1.352v-7.75h1.353ZM45.946 84.444v1.272h-7.298v-1.272h7.298Zm-2.97-3.108v7.751h-1.352v-7.75h1.353ZM45.946 122.521v1.273h-7.298v-1.273h7.298Zm-2.97-3.107v7.751h-1.352v-7.751h1.353ZM84.023 8.289v1.272h-7.298V8.29h7.298Zm-2.969-3.108v7.751h-1.353v-7.75h1.353ZM84.023 46.367v1.272h-7.298v-1.273h7.298Zm-2.969-3.108v7.75h-1.353v-7.75h1.353ZM84.023 84.444v1.272h-7.298v-1.272h7.298Zm-2.969-3.108v7.751h-1.353v-7.75h1.353ZM84.023 122.521v1.273h-7.298v-1.273h7.298Zm-2.969-3.107v7.751h-1.353v-7.751h1.353ZM122.101 8.289v1.272h-7.298V8.29h7.298Zm-2.969-3.108v7.751h-1.353v-7.75h1.353Z" fill="#CFD2E3"/><path d="M122.101 46.367v1.272h-7.298v-1.273h7.298Zm-2.969-3.108v7.75h-1.353v-7.75h1.353Z" fill="#6DA975"/><path d="M122.101 84.444v1.272h-7.298v-1.272h7.298Zm-2.969-3.108v7.751h-1.353v-7.75h1.353ZM122.101 122.521v1.273h-7.298v-1.273h7.298Zm-2.969-3.107v7.751h-1.353v-7.751h1.353Z" fill="#CFD2E3"/></svg>