<svg width="22" height="22" fill="none" xmlns="http://www.w3.org/2000/svg"><path d="M14.58 10.125a.675.675 0 0 1 0 1.35v-1.35ZM9 11.475a.675.675 0 1 1 0-1.35v1.35Zm0-3.253h.675H9ZM6.102 6.795l-.412-.534.412.534Zm0 8.01-.412.534.412-.534ZM9 13.378h-.675H9Zm-6.247-1.152.412-.535-.412.535Zm0-2.852.412.534-.412-.534ZM14.58 10.8v.675H9v-1.35h5.58v.675ZM2.753 12.226l.412-.535 3.349 2.579-.412.535-.412.534-3.349-2.578.412-.535ZM9 13.378h-.675V8.222h1.35v5.156H9ZM6.102 6.795l.412.535-3.35 2.578-.411-.534-.412-.535 3.35-2.578.411.534ZM9 8.222h-.675c0-.934-1.072-1.461-1.811-.892l-.412-.535-.412-.534c1.628-1.253 3.985-.093 3.985 1.96H9Zm-2.898 6.583.412-.535c.74.57 1.811.042 1.811-.892h1.35c0 2.054-2.357 3.214-3.985 1.961l.412-.534Zm-3.35-2.579-.41.535a2.475 2.475 0 0 1 0-3.922l.41.535.413.534a1.125 1.125 0 0 0 0 1.783l-.412.535Z" fill="#fff"/><path d="M16.74 10.8h1.08" stroke="#fff" stroke-width="1.35" stroke-linecap="round"/></svg>