<svg xmlns="http://www.w3.org/2000/svg" width="38" height="50" fill="none"><path d="M20.29 17.725C11.873 20.334 7.126 29.561 7.509 42.332c1.745-1.474 1.275-4.692 4.033-5.042.253.281.595.443.61.547-.716 3.444-1.372 6.932-2.25 10.346-.309 1.159-1.493 1.756-2.564.958-2.2-1.64-4.505-3.264-6.354-6.12 1.587-.02 2.7-.024 3.441-.026.196-3.74.08-7.433.677-10.965 1.307-8.46 5.737-14.779 13.915-17.935 1.304-.509 1.717-1.311 2.128-2.484C22.79 6.547 26.205 3.08 31.26 1.387c1.822-.584 3.912-1.155 6.025.974-3.723-.091-6.523 1.06-8.98 3.115-2.351 2.04-4.227 4.434-4.721 7.58 2.57 1.268 5.199 2.209 7.34 3.804 2.186 1.536 4.18 3.576 5.715 5.737 1.594 2.205 1.143 4.921-.468 6.588-1.552 1.71-4.043 2.075-6.554.852-3.997-1.96-6.707-5.274-8.367-9.378-.3-.963-.66-1.97-.96-2.934Zm3.054-.5c1.038 4.566 3.436 7.555 6.93 9.695 1.159.678 2.45 1.178 3.485-.086.901-1.086.408-2.286-.367-3.233-2.368-3.151-5.535-5.233-10.048-6.375Z" fill="#FFA700"/></svg>